<svg width="600" height="330" viewBox="0 0 600 330" fill="none" xmlns="http://www.w3.org/2000/svg">
<g clip-path="url(#clip0_914_5402)">
<rect width="600" height="330" fill="#BFE8D3"/>
<path opacity="0.513091" fill-rule="evenodd" clip-rule="evenodd" d="M-10.7591 375.23C89.8255 439.467 570.541 422.078 617.619 326.88C726.288 107.142 189.118 147.283 41.6944 192.661C-43.0613 218.75 -80.2004 330.883 -10.7591 375.23Z" fill="white"/>
<path fill-rule="evenodd" clip-rule="evenodd" d="M79.0961 248.194C112.322 284.819 373.533 287.922 410.498 248.194C436.056 220.726 428.935 83.9663 410.497 60.9089C377.936 20.1886 105.984 15.4577 69.7243 60.9092C46.5947 89.9025 33.7456 212.604 79.0961 248.194Z" fill="white"/>
<path fill-rule="evenodd" clip-rule="evenodd" d="M132.778 196.33C127.704 193.661 127.06 191.758 124.91 186.978C121.429 179.237 117.804 182.885 114.381 189.134C111.253 194.846 110.807 197.073 100.635 197.191C90.7908 198.34 96.9608 204.73 101.16 209.192C105.209 213.495 102.461 214.728 101.16 219.834C100.37 222.933 98.8683 228.181 103.847 228.997C106.533 229.437 110.561 227.946 112.684 226.856C119.747 223.229 119.386 223.283 126.053 227.34C129.943 229.707 135.789 230.252 136.13 225.912C136.355 223.055 136.162 222.024 135.68 219.176C134.911 214.628 133.99 213.315 138.699 209.192C147.458 201.522 134.466 197.218 132.778 196.33Z" fill="#F8E287"/>
<path fill-rule="evenodd" clip-rule="evenodd" d="M188.641 196.33C183.568 193.661 182.923 191.758 180.773 186.978C177.292 179.237 173.667 182.885 170.244 189.134C167.116 194.846 166.671 197.073 156.499 197.191C146.654 198.34 152.824 204.73 157.023 209.192C161.073 213.495 158.324 214.728 157.023 219.834C156.234 222.933 154.732 228.181 159.71 228.997C162.396 229.437 166.424 227.946 168.547 226.856C175.61 223.229 175.249 223.283 181.916 227.34C185.806 229.707 191.653 230.252 191.994 225.912C192.218 223.055 192.026 222.024 191.544 219.176C190.774 214.628 189.853 213.315 194.562 209.192C203.321 201.522 190.329 197.218 188.641 196.33Z" fill="#F8E287"/>
<path fill-rule="evenodd" clip-rule="evenodd" d="M243.505 196.33C238.431 193.661 237.787 191.758 235.637 186.978C232.155 179.237 228.53 182.885 225.107 189.134C221.979 194.846 221.534 197.073 211.362 197.191C201.517 198.34 207.687 204.73 211.886 209.192C215.936 213.495 213.187 214.728 211.886 219.834C211.097 222.933 209.595 228.181 214.573 228.997C217.259 229.437 221.287 227.946 223.411 226.856C230.474 223.229 230.112 223.283 236.78 227.34C240.67 229.707 246.516 230.252 246.857 225.912C247.081 223.055 246.889 222.024 246.407 219.176C245.637 214.628 244.716 213.315 249.426 209.192C258.184 201.522 245.193 197.218 243.505 196.33Z" fill="#F8E287"/>
<path fill-rule="evenodd" clip-rule="evenodd" d="M301.21 196.331C296.136 193.662 295.492 191.759 293.342 186.979C289.86 179.238 286.235 182.886 282.813 189.135C279.684 194.847 279.239 197.074 269.067 197.192C259.222 198.341 265.392 204.73 269.592 209.193C273.641 213.496 270.892 214.729 269.592 219.835C268.802 222.934 267.3 228.182 272.278 228.998C274.964 229.438 278.992 227.947 281.116 226.857C288.179 223.23 287.817 223.284 294.485 227.341C298.375 229.708 304.221 230.253 304.562 225.913C304.786 223.056 304.594 222.025 304.112 219.177C303.342 214.629 302.421 213.316 307.131 209.193C315.89 201.523 302.898 197.219 301.21 196.331Z" fill="#F8E287"/>
<path fill-rule="evenodd" clip-rule="evenodd" d="M296.884 200.095C293.306 198.213 292.851 196.87 291.335 193.499C288.879 188.039 286.322 190.612 283.908 195.019C281.702 199.048 281.388 200.619 274.213 200.702C267.27 201.513 271.621 206.019 274.583 209.167C277.439 212.202 275.501 213.072 274.583 216.673C274.026 218.859 272.967 222.56 276.478 223.136C278.373 223.446 281.214 222.395 282.711 221.625C287.693 219.067 287.438 219.106 292.141 221.967C294.885 223.637 299.008 224.021 299.249 220.96C299.407 218.945 299.271 218.217 298.931 216.209C298.388 213.001 297.739 212.075 301.06 209.167C307.238 203.757 298.075 200.721 296.884 200.095Z" fill="white"/>
<path fill-rule="evenodd" clip-rule="evenodd" d="M359.649 196.33C354.575 193.661 353.931 191.758 351.781 186.978C348.3 179.237 344.675 182.885 341.252 189.134C338.124 194.846 337.678 197.073 327.507 197.191C317.662 198.34 323.832 204.73 328.031 209.192C332.08 213.495 329.332 214.728 328.031 219.834C327.241 222.933 325.739 228.181 330.718 228.997C333.404 229.437 337.432 227.946 339.555 226.856C346.618 223.229 346.257 223.283 352.924 227.34C356.814 229.707 362.661 230.252 363.001 225.912C363.226 223.055 363.033 222.024 362.552 219.176C361.782 214.628 360.861 213.315 365.57 209.192C374.329 201.522 361.337 197.218 359.649 196.33Z" fill="#F8E287"/>
<path fill-rule="evenodd" clip-rule="evenodd" d="M355.323 200.094C351.744 198.212 351.29 196.87 349.773 193.498C347.318 188.038 344.761 190.611 342.347 195.018C340.14 199.047 339.826 200.618 332.652 200.701C325.708 201.512 330.06 206.018 333.022 209.166C335.878 212.201 333.939 213.071 333.022 216.672C332.465 218.858 331.405 222.559 334.917 223.135C336.811 223.445 339.652 222.394 341.15 221.624C346.132 219.066 345.877 219.105 350.579 221.966C353.323 223.636 357.447 224.02 357.687 220.959C357.845 218.944 357.71 218.216 357.37 216.208C356.827 213 356.177 212.074 359.499 209.166C365.677 203.756 356.513 200.72 355.323 200.094Z" fill="white"/>
<path fill-rule="evenodd" clip-rule="evenodd" d="M165.154 98.788C164.965 120.096 168.55 151.939 152.3 150.421C135.316 148.836 118.347 149.664 107.919 148.144C97.4902 146.626 92.8823 134.476 93.125 106.382C93.3678 78.2873 96.2773 78.2873 116.65 78.2873C137.022 78.2873 165.397 71.4507 165.154 98.788Z" fill="#E0F4EA"/>
<path fill-rule="evenodd" clip-rule="evenodd" d="M274.817 132.942C291.691 133.221 301.723 124.257 291.049 119.576C280.374 114.892 228.539 118.25 212.654 118.074C196.77 117.895 188.014 118.532 187.923 127.033C187.821 136.181 216.372 132.299 238.178 132.897C257.789 133.438 274.817 132.942 274.817 132.942Z" fill="#E0F4EA"/>
<path fill-rule="evenodd" clip-rule="evenodd" d="M359.643 102.425C372.068 100.781 378.311 90.5948 360.717 87.3415C343.122 84.0903 301.804 83.9218 275.196 83.7041C248.587 83.4863 201.066 86.0351 195.507 85.9568C189.95 85.8807 178.996 97.2982 202.213 99.9147C225.429 102.531 305.897 99.0253 325.25 100.365C344.603 101.705 354.414 103.116 359.643 102.425Z" fill="#E0F4EA"/>
<path fill-rule="evenodd" clip-rule="evenodd" d="M341.617 154.12C340.159 151.347 351.504 154.185 349.786 152.463C340.463 143.109 331.697 144.036 336.623 136.393C340.294 130.696 349.263 130.386 362.136 138.107C367.119 141.095 394.731 165.083 419.252 177.491C437.056 186.5 461.166 189.738 484.496 192.609C482.356 197.572 480.562 212.77 479.536 220.202C451.951 220.522 427.026 208.877 402.585 192.363C384.105 179.878 375.959 174.869 357.212 159.105C356.795 158.753 342.618 156.021 341.617 154.12Z" fill="#88BCDA"/>
<path fill-rule="evenodd" clip-rule="evenodd" d="M477.108 108.29C481.29 123.818 472.772 114.451 477.093 130.754C479.656 140.429 448.873 104.736 467.553 93.4604" fill="#0D6390"/>
<path fill-rule="evenodd" clip-rule="evenodd" d="M474.722 131.561C457.899 98.0331 456.721 91.0157 472.804 79.718C496.927 62.7707 512.6 74.1335 523.305 89.3709C534.01 104.609 536.534 122.378 542.437 134.922C546.489 143.533 554.06 157.944 569.277 163.465C588.462 170.425 556.611 197.515 538.821 198.76C521.03 200.004 512.176 191.703 513.822 183.579C515.468 175.456 513.088 157.464 497.563 156.134C489.727 155.463 483.192 148.441 474.722 131.561Z" fill="#88BCDA"/>
<path fill-rule="evenodd" clip-rule="evenodd" d="M458.557 110.229C468.433 115.386 503.387 73.1298 514.408 92.1686C527.294 114.43 528.283 107.355 538.314 126.371C546.386 140.197 546.639 57.4195 507.763 65.1631C491.581 68.3863 480.491 56.6429 460.284 72.4568C450.49 80.1215 440.434 100.766 458.557 110.229Z" fill="#0C5077"/>
<path fill-rule="evenodd" clip-rule="evenodd" d="M506.164 114.045C505.873 112.64 505.159 112.043 503.651 111.888C502.33 111.752 501.485 112.968 501.433 113.772C501.316 115.591 503.295 118.075 505.021 117.134C506.192 116.495 506.407 115.216 506.164 114.045Z" fill="#083752"/>
<path fill-rule="evenodd" clip-rule="evenodd" d="M482.368 124.112C482.12 122.913 481.511 122.403 480.224 122.272C479.096 122.156 478.376 123.193 478.331 123.88C478.231 125.432 479.919 127.552 481.393 126.748C482.392 126.204 482.575 125.111 482.368 124.112Z" fill="#083752"/>
<path fill-rule="evenodd" clip-rule="evenodd" d="M496.182 137.007C492.569 137.037 491.671 134.744 494.122 134.498C496.713 134.238 499.947 131.255 501.126 132.369C501.707 132.918 499.985 136.975 496.182 137.007Z" fill="white"/>
<path fill-rule="evenodd" clip-rule="evenodd" d="M506.304 104.365C501.262 103.907 496.734 105.2 493.938 108.705C493.37 109.417 493.412 110.45 494.031 111.012C494.653 111.575 495.303 110.87 496.007 110.285C498.545 108.176 501.726 106.897 507.088 107.261C507.925 107.318 509.07 107.18 509.13 106.272C509.184 105.47 508.048 104.524 506.304 104.365Z" fill="#0D6390"/>
<path fill-rule="evenodd" clip-rule="evenodd" d="M478.963 114.623C475.192 114.053 471.44 115.901 468.629 118.903C467.657 119.941 468.113 120.708 468.519 121.404C468.914 122.079 469.421 122.064 469.893 121.573C473.072 118.259 476.756 117.108 478.71 117.394C482.177 117.903 485.224 119.031 485.553 124.871C486 132.774 490.898 130.566 491.247 129.789C491.704 128.775 489.165 128.987 488.418 128.617C486.892 127.862 487.01 121.587 485.618 119.338C484.084 116.86 482.419 115.145 478.963 114.623Z" fill="#0D6390"/>
<path fill-rule="evenodd" clip-rule="evenodd" d="M520.412 101.328C526.532 97.1133 529.976 100.461 531.367 102.531C534.773 107.604 532.411 111.868 526.353 113.289C522.562 114.177 517.365 103.426 520.412 101.328Z" fill="#88BCDA"/>
<path fill-rule="evenodd" clip-rule="evenodd" d="M530.217 109.694C529.782 110.059 529.392 110.186 529.088 110.041C528.588 109.803 528.032 108.633 529.163 108.317C529.418 108.245 529.949 108.285 530.143 108.433C530.798 108.928 530.497 109.457 530.217 109.694ZM529.748 109.327C529.587 109.461 529.444 109.508 529.332 109.454C529.148 109.366 528.944 108.937 529.359 108.82C529.454 108.794 529.649 108.808 529.72 108.863C529.961 109.045 529.851 109.239 529.748 109.327Z" fill="#233A52"/>
<path fill-rule="evenodd" clip-rule="evenodd" d="M468.536 187.661C478.739 185.925 497.839 184.238 512.553 178.222C518.758 175.684 505.396 197.452 526.33 186.023C546.148 175.205 556.224 157.785 563.538 158.81C599.343 163.823 629.886 220.14 644.59 246.609C655.357 265.991 652.729 344.031 632.525 357.622C612.151 371.327 599.146 358.139 598.671 357.622C551.985 306.804 517.718 247.196 497.11 233.295C476.502 219.395 469.595 224.374 469.335 219.317C468.261 211.898 462.082 188.76 468.536 187.661Z" fill="white"/>
<path fill-rule="evenodd" clip-rule="evenodd" d="M400.201 118.361C385.086 121.823 378.204 118.372 365.368 112.349C344.584 102.596 346.03 118.554 345.085 137.376C344.193 155.143 337.135 165.659 324.739 179.094C306.56 198.799 330.48 201.041 346.96 202.8C362.854 204.498 369.747 215.602 376.073 228.373C379.913 236.125 384.897 247.717 396.552 240.619C402.84 236.79 405.63 223.765 408.067 217.785C416.172 197.897 415.526 198.645 436.358 195.223C448.512 193.227 461.471 184.044 454.525 174.537C449.951 168.278 447.739 166.5 441.733 161.505C432.138 153.527 427.936 152.456 430.335 135.695C434.799 104.521 405.23 117.209 400.201 118.361Z" fill="#F1C40F"/>
<path fill-rule="evenodd" clip-rule="evenodd" d="M407.743 200.817C405.232 198.451 397.666 193.026 396.3 195.249C394.933 197.472 402.038 200.596 401.667 202.952C401.199 205.932 379.437 192.964 376.965 200.878C371.115 219.611 399.077 224.096 414.315 230.533C429.22 236.828 466.105 257.171 492.653 260.857C538.967 267.288 562.17 238.548 578.259 220.03C582.895 214.695 583.099 193.359 564.012 200.817C544.543 208.425 528.146 241.446 490.446 232.81C474.274 229.105 443.337 222.077 429.063 216.764C418.923 212.99 413.969 206.68 407.743 200.817Z" fill="#88BCDA"/>
<path fill-rule="evenodd" clip-rule="evenodd" d="M541.392 196.732C535.913 204.46 558.657 233.966 568.081 233.007C577.507 232.047 590.789 207.823 588.999 190.073C587.538 175.579 566.611 169.457 553.022 183.68C546.46 190.549 544.472 192.388 541.392 196.732Z" fill="white"/>
<path fill-rule="evenodd" clip-rule="evenodd" d="M340.473 132.195C333.397 138.55 331.179 148.76 334.607 152.58C338.035 156.398 341.688 157.612 344.336 152.262C349.792 141.236 342.947 139.902 344.934 135.809C348.148 129.19 347.656 129.986 345.435 129.119C343.214 128.252 342.23 130.618 340.473 132.195Z" fill="#88BCDA"/>
</g>
<defs>
<clipPath id="clip0_914_5402">
<rect width="600" height="330" fill="white"/>
</clipPath>
</defs>
</svg>
