<svg width="600" height="330" viewBox="0 0 600 330" fill="none" xmlns="http://www.w3.org/2000/svg">
<rect width="600" height="330" transform="matrix(-1 0 0 1 600 0)" fill="white"/>
<rect width="600" height="330" transform="matrix(-1 0 0 1 600 0)" fill="#C4DEEC"/>
<mask id="mask0_914_5724" style="mask-type:luminance" maskUnits="userSpaceOnUse" x="0" y="0" width="600" height="330">
<rect width="600" height="330" transform="matrix(-1 0 0 1 600 0)" fill="white"/>
<rect width="600" height="330" transform="matrix(-1 0 0 1 600 0)" stroke="white"/>
</mask>
<g mask="url(#mask0_914_5724)">
<path opacity="0.296782" fill-rule="evenodd" clip-rule="evenodd" d="M585.513 368.595C489.978 441.374 33.3948 421.672 -11.3199 313.815C-114.534 64.8561 395.67 110.335 535.693 161.747C641.213 195.981 651.468 318.35 585.513 368.595Z" fill="white"/>
<path fill-rule="evenodd" clip-rule="evenodd" d="M503.132 72.3279C502.431 107.809 514.577 183.064 490.969 209.08C458.23 245.158 362.334 234.164 316.568 232.507C300.296 231.919 271.778 225.456 270.778 176.61C265.889 -62.201 241.541 -19.8893 405.016 -18.6406C420.287 -18.5246 477.118 -19.5054 494.847 -15.5224C497.394 -14.9495 499.896 -14.2414 502.373 -13.4723C504.224 17.1189 503.616 47.893 503.132 72.3279Z" fill="white"/>
<path fill-rule="evenodd" clip-rule="evenodd" d="M505.944 126.897C513.371 129.01 515.983 133.553 513.095 138.317C510.482 142.622 504.957 139.737 502.174 138.68C494.492 135.759 487.593 134.966 491.948 128.352C496.302 121.738 500.239 124.809 505.944 126.897Z" fill="#F2D249"/>
<path fill-rule="evenodd" clip-rule="evenodd" d="M488.977 153.922C492.568 160.797 491.091 165.831 485.669 167.002C480.767 168.06 479.043 162.041 477.89 159.282C474.705 151.664 470.529 146.082 478.294 144.707C486.058 143.332 486.555 148.321 488.977 153.922Z" fill="#F2D249"/>
<path fill-rule="evenodd" clip-rule="evenodd" d="M309.358 185.663C309.722 193.875 302.826 206.148 334.088 205.564C366.762 204.952 399.408 205.272 419.471 204.686C439.535 204.101 448.4 199.418 447.933 188.59C447.466 177.762 441.868 177.762 402.674 177.762C363.481 177.762 308.891 175.127 309.358 185.663Z" fill="#FFD6C9"/>
<path fill-rule="evenodd" clip-rule="evenodd" d="M325.806 163.725C311.04 163.522 302.466 158.321 311.908 155.943C321.351 153.564 366.618 156.534 380.518 156.773C394.416 157.011 402.061 157.552 401.949 162.284C401.832 167.375 376.945 164.609 357.857 164.478C340.691 164.362 325.806 163.725 325.806 163.725Z" fill="#FDEDEB"/>
<path fill-rule="evenodd" clip-rule="evenodd" d="M314.222 145.333C305.467 144.07 301.293 138.229 313.824 136.914C326.357 135.599 355.609 136.665 374.449 137.29C393.29 137.916 426.867 140.667 430.803 140.779C434.739 140.893 442.218 147.55 425.721 148.354C409.224 149.158 352.349 144.95 338.617 145.152C324.886 145.354 317.907 145.864 314.222 145.333Z" fill="#FDEDEB"/>
<path fill-rule="evenodd" clip-rule="evenodd" d="M453.636 35.7561C458.557 52.3243 448.032 109.549 438.695 148.79C436.338 158.694 423.273 161.509 416.614 153.54L408.038 143.276C397.835 131.065 388.758 118.848 366.684 132.156L347.615 142.836C341.523 146.248 333.938 141.39 334.723 134.573C338.597 100.992 341.151 33.102 352.858 21.1351C366.329 7.36452 445.89 9.67177 453.636 35.7561Z" fill="#FF6340"/>
<path fill-rule="evenodd" clip-rule="evenodd" d="M212.461 206.321C222.872 192.427 220.785 182.71 216.286 168.833C215.986 167.908 217.265 166.029 216.945 165.065C216.67 164.228 213.257 163.89 212.003 158.899C206.329 136.287 198.166 118.394 173.639 122.46C136.85 128.56 128.116 157.313 132.326 183.024C136.537 208.735 152.972 217.296 158.571 229.442C167.503 248.819 152.306 271.354 143.96 291.621C133.342 317.406 197.23 306.499 214.206 290.624C231.183 274.749 249.068 258.047 233.572 252.633C211.057 244.768 200.707 222.008 212.461 206.321Z" fill="#87BBD9"/>
<path fill-rule="evenodd" clip-rule="evenodd" d="M151.543 99.9336C172.99 99.9336 203.24 106.269 206.141 133.121C206.927 140.412 163.239 152.612 163.917 163.99C165.656 193.181 211.767 219.975 174.815 230.025C131.886 241.7 104.64 239.106 95.2658 200.945C84.2866 156.249 114.849 99.9336 151.543 99.9336Z" fill="#0D6390"/>
<path fill-rule="evenodd" clip-rule="evenodd" d="M173.603 176.526C166.234 175.561 164.77 180.572 164.515 183.293C163.892 189.958 167.971 192.89 173.973 191.172C177.73 190.098 177.269 177.006 173.603 176.526Z" fill="#87BBD9"/>
<path fill-rule="evenodd" clip-rule="evenodd" d="M350.854 151.779C350.063 139.131 346.124 128.731 347.716 118.842C350.424 102.017 362.523 81.7817 365.905 86.433C368.671 90.2391 356.147 107.905 358.071 110.134C360.373 112.801 361.555 110.752 365.386 111.24C388.662 114.199 370.94 141.863 372.182 150.42C374.676 167.609 389.302 220.353 360.451 266.802C331.6 313.252 277.839 308.61 249.282 308.4C241.054 308.34 222.266 291.99 243.474 280.997C265.108 269.783 316.358 282.694 335.977 241.913C355.594 201.132 352.027 170.543 350.854 151.779Z" fill="#87BBD9"/>
<path fill-rule="evenodd" clip-rule="evenodd" d="M133.742 284.171C137.226 258.753 149.438 252.957 156.637 251.712C160.605 251.025 148.716 266.446 176.409 267.477C214.612 268.9 223.264 247.224 234.739 249.204C269.692 268.509 309.998 256.257 311.807 262.555C323.82 304.407 327.384 303.579 308.24 309.416C294.328 313.659 297.251 335.182 298.112 348.179C298.387 352.338 290.22 351.879 222.218 352.614C145.359 353.446 136.863 349.86 136.268 345.962C132.549 321.637 132.09 296.23 133.742 284.171Z" fill="white"/>
<path fill-rule="evenodd" clip-rule="evenodd" d="M205.861 156.819C204.982 155.454 205.083 154.403 206.172 153.077C207.124 151.915 208.763 152.225 209.442 152.833C210.974 154.208 211.352 157.79 209.221 158.404C207.777 158.82 206.593 157.958 205.861 156.819Z" fill="#083752"/>
<path fill-rule="evenodd" clip-rule="evenodd" d="M193.958 149.427C198.584 144.13 203.29 143.048 207.196 143.21C208.217 143.252 209.086 144.024 209.136 144.949C209.186 145.876 208.128 146.14 207.108 146.087C204.023 145.93 199.496 146.719 195.699 152.201C195.174 152.958 194.227 153.809 193.397 153.207C192.662 152.675 192.694 150.875 193.958 149.427Z" fill="#0C5077"/>
<path fill-rule="evenodd" clip-rule="evenodd" d="M218.969 178.347C219.178 178.249 218.876 176.82 218.06 174.374C217.517 172.748 217.963 173.352 214.56 174.876C212.309 175.885 211.444 175.868 212.77 177.204C213.907 178.347 215.662 179.906 218.969 178.347Z" fill="white"/>
<path fill-rule="evenodd" clip-rule="evenodd" d="M290.597 79.1683C282.166 81.1383 279.002 86.0877 281.986 91.5765C284.686 96.5403 291.027 93.6039 294.199 92.5657C302.957 89.7035 310.727 89.1832 306.197 81.5425C301.668 73.9031 297.096 77.1338 290.597 79.1683Z" fill="#F2D249"/>
<path fill-rule="evenodd" clip-rule="evenodd" d="M287.131 29.4426C275.803 23.3928 268.077 23.925 266.986 30.1877C266 35.8488 275.721 39.4311 280.227 41.5099C292.67 47.2511 302.043 53.6885 303.129 44.6461C304.217 35.6036 296.29 33.7629 287.131 29.4426Z" fill="#F2D249"/>
</g>
</svg>
